<svg width="15" height="7" viewBox="0 0 15 7" fill="none" xmlns="http://www.w3.org/2000/svg">
<path d="M3.75 7C2.7125 7 1.82813 6.65875 1.09688 5.97625C0.365625 5.29375 0 4.46833 0 3.5C0 2.53167 0.365625 1.70625 1.09688 1.02375C1.82813 0.34125 2.7125 0 3.75 0H6C6.2125 0 6.39063 0.0670833 6.53438 0.20125C6.67813 0.335417 6.75 0.501667 6.75 0.7C6.75 0.898333 6.67813 1.06458 6.53438 1.19875C6.39063 1.33292 6.2125 1.4 6 1.4H3.75C3.125 1.4 2.59375 1.60417 2.15625 2.0125C1.71875 2.42083 1.5 2.91667 1.5 3.5C1.5 4.08333 1.71875 4.57917 2.15625 4.9875C2.59375 5.39583 3.125 5.6 3.75 5.6H6C6.2125 5.6 6.39063 5.66708 6.53438 5.80125C6.67813 5.93542 6.75 6.10167 6.75 6.3C6.75 6.49833 6.67813 6.66458 6.53438 6.79875C6.39063 6.93292 6.2125 7 6 7H3.75ZM5.25 4.2C5.0375 4.2 4.85938 4.13292 4.71563 3.99875C4.57188 3.86458 4.5 3.69833 4.5 3.5C4.5 3.30167 4.57188 3.13542 4.71563 3.00125C4.85938 2.86708 5.0375 2.8 5.25 2.8H9.75C9.9625 2.8 10.1406 2.86708 10.2844 3.00125C10.4281 3.13542 10.5 3.30167 10.5 3.5C10.5 3.69833 10.4281 3.86458 10.2844 3.99875C10.1406 4.13292 9.9625 4.2 9.75 4.2H5.25ZM9 7C8.7875 7 8.60938 6.93292 8.46563 6.79875C8.32188 6.66458 8.25 6.49833 8.25 6.3C8.25 6.10167 8.32188 5.93542 8.46563 5.80125C8.60938 5.66708 8.7875 5.6 9 5.6H11.25C11.875 5.6 12.4063 5.39583 12.8438 4.9875C13.2813 4.57917 13.5 4.08333 13.5 3.5C13.5 2.91667 13.2813 2.42083 12.8438 2.0125C12.4063 1.60417 11.875 1.4 11.25 1.4H9C8.7875 1.4 8.60938 1.33292 8.46563 1.19875C8.32188 1.06458 8.25 0.898333 8.25 0.7C8.25 0.501667 8.32188 0.335417 8.46563 0.20125C8.60938 0.0670833 8.7875 0 9 0H11.25C12.2875 0 13.1719 0.34125 13.9031 1.02375C14.6344 1.70625 15 2.53167 15 3.5C15 4.46833 14.6344 5.29375 13.9031 5.97625C13.1719 6.65875 12.2875 7 11.25 7H9Z" fill="#8E99A4"/>
</svg>
