<svg width="11" height="10" viewBox="0 0 11 10" fill="none" xmlns="http://www.w3.org/2000/svg">
<path d="M6.33726 6.11111L4.89403 4.66667L2.11859 7.44444L3.56182 8.88889L6.33726 6.11111ZM5.68503 3.875L7.12826 5.31944L9.88982 2.55556L8.44659 1.11111L5.68503 3.875ZM4.51934 3.48611L7.51682 6.48611L4.33894 9.66667C4.1169 9.88889 3.85786 10 3.56182 10C3.26577 10 3.00673 9.88889 2.78469 9.66667L2.75694 9.63889L2.71531 9.68056C2.61354 9.78241 2.49558 9.86111 2.36144 9.91667C2.22729 9.97222 2.08621 10 1.93818 10H0.286796C0.157275 10 0.069386 9.94444 0.0231287 9.83333C-0.0231287 9.72222 0 9.62037 0.0925147 9.52778L1.36922 8.25L1.34146 8.22222C1.11943 8 1.00841 7.74074 1.00841 7.44444C1.00841 7.14815 1.11943 6.88889 1.34146 6.66667L4.51934 3.48611ZM4.51934 3.48611L7.66947 0.333333C7.89151 0.111111 8.15055 0 8.44659 0C8.74264 0 9.00168 0.111111 9.22372 0.333333L10.6669 1.77778C10.889 2 11 2.25926 11 2.55556C11 2.85185 10.889 3.11111 10.6669 3.33333L7.51682 6.48611L4.51934 3.48611Z" fill="#8E99A4"/>
</svg>
