<svg width="9" height="12" viewBox="0 0 9 12" fill="none" xmlns="http://www.w3.org/2000/svg">
<path d="M1.73077 12C1.25481 12 0.847356 11.8321 0.508413 11.4964C0.169471 11.1607 0 10.7571 0 10.2857V1.71429C0 1.24286 0.169471 0.839286 0.508413 0.503571C0.847356 0.167857 1.25481 0 1.73077 0H4.78125C5.71875 0 6.58413 0.285714 7.3774 0.857143C8.17067 1.42857 8.56731 2.22143 8.56731 3.23571C8.56731 3.96429 8.40144 4.525 8.06971 4.91786C7.73798 5.31071 7.42788 5.59286 7.13942 5.76429C7.5 5.92143 7.90024 6.21429 8.34014 6.64286C8.78005 7.07143 9 7.71429 9 8.57143C9 9.84286 8.53125 10.7321 7.59375 11.2393C6.65625 11.7464 5.77644 12 4.95433 12H1.73077ZM2.61779 9.6H4.86779C5.5601 9.6 5.98197 9.425 6.13341 9.075C6.28486 8.725 6.36058 8.47143 6.36058 8.31429C6.36058 8.15714 6.28486 7.90357 6.13341 7.55357C5.98197 7.20357 5.53846 7.02857 4.80288 7.02857H2.61779V9.6ZM2.61779 4.71429H4.62981C5.10577 4.71429 5.45192 4.59286 5.66827 4.35C5.88462 4.10714 5.99279 3.83571 5.99279 3.53571C5.99279 3.19286 5.87019 2.91429 5.625 2.7C5.37981 2.48571 5.0625 2.37857 4.67308 2.37857H2.61779V4.71429Z" fill="#8E99A4"/>
</svg>
