<svg width="14" height="15" viewBox="0 0 14 15" fill="none" xmlns="http://www.w3.org/2000/svg">
<path d="M0.583333 15C0.414815 15 0.275463 14.9469 0.165278 14.8406C0.0550926 14.7344 0 14.6 0 14.4375C0 14.275 0.0550926 14.1406 0.165278 14.0344C0.275463 13.9281 0.414815 13.875 0.583333 13.875H1.94444V13.3125H1.36111C1.19259 13.3125 1.05324 13.2594 0.943056 13.1531C0.83287 13.0469 0.777778 12.9125 0.777778 12.75C0.777778 12.5875 0.83287 12.4531 0.943056 12.3469C1.05324 12.2406 1.19259 12.1875 1.36111 12.1875H1.94444V11.625H0.583333C0.414815 11.625 0.275463 11.5719 0.165278 11.4656C0.0550926 11.3594 0 11.225 0 11.0625C0 10.9 0.0550926 10.7656 0.165278 10.6594C0.275463 10.5531 0.414815 10.5 0.583333 10.5H2.33333C2.5537 10.5 2.73843 10.5719 2.8875 10.7156C3.03657 10.8594 3.11111 11.0375 3.11111 11.25V12C3.11111 12.2125 3.03657 12.3906 2.8875 12.5344C2.73843 12.6781 2.5537 12.75 2.33333 12.75C2.5537 12.75 2.73843 12.8219 2.8875 12.9656C3.03657 13.1094 3.11111 13.2875 3.11111 13.5V14.25C3.11111 14.4625 3.03657 14.6406 2.8875 14.7844C2.73843 14.9281 2.5537 15 2.33333 15H0.583333ZM0.583333 9.75C0.414815 9.75 0.275463 9.69688 0.165278 9.59063C0.0550926 9.48438 0 9.35 0 9.1875V7.6875C0 7.475 0.074537 7.29688 0.223611 7.15313C0.372685 7.00938 0.557407 6.9375 0.777778 6.9375H1.94444V6.375H0.583333C0.414815 6.375 0.275463 6.32188 0.165278 6.21563C0.0550926 6.10938 0 5.975 0 5.8125C0 5.65 0.0550926 5.51562 0.165278 5.40938C0.275463 5.30313 0.414815 5.25 0.583333 5.25H2.33333C2.5537 5.25 2.73843 5.32188 2.8875 5.46563C3.03657 5.60938 3.11111 5.7875 3.11111 6V7.3125C3.11111 7.525 3.03657 7.70313 2.8875 7.84688C2.73843 7.99063 2.5537 8.0625 2.33333 8.0625H1.16667V8.625H2.52778C2.6963 8.625 2.83565 8.67813 2.94583 8.78438C3.05602 8.89062 3.11111 9.025 3.11111 9.1875C3.11111 9.35 3.05602 9.48438 2.94583 9.59063C2.83565 9.69688 2.6963 9.75 2.52778 9.75H0.583333ZM1.75 4.5C1.58148 4.5 1.44213 4.44688 1.33194 4.34063C1.22176 4.23438 1.16667 4.1 1.16667 3.9375V1.125H0.583333C0.414815 1.125 0.275463 1.07188 0.165278 0.965625C0.0550926 0.859375 0 0.725 0 0.5625C0 0.4 0.0550926 0.265625 0.165278 0.159375C0.275463 0.053125 0.414815 0 0.583333 0H1.75C1.91852 0 2.05787 0.053125 2.16806 0.159375C2.27824 0.265625 2.33333 0.4 2.33333 0.5625V3.9375C2.33333 4.1 2.27824 4.23438 2.16806 4.34063C2.05787 4.44688 1.91852 4.5 1.75 4.5ZM5.44444 12.75C5.22407 12.75 5.03935 12.6781 4.89028 12.5344C4.7412 12.3906 4.66667 12.2125 4.66667 12C4.66667 11.7875 4.7412 11.6094 4.89028 11.4656C5.03935 11.3219 5.22407 11.25 5.44444 11.25H13.2222C13.4426 11.25 13.6273 11.3219 13.7764 11.4656C13.9255 11.6094 14 11.7875 14 12C14 12.2125 13.9255 12.3906 13.7764 12.5344C13.6273 12.6781 13.4426 12.75 13.2222 12.75H5.44444ZM5.44444 8.25C5.22407 8.25 5.03935 8.17813 4.89028 8.03438C4.7412 7.89063 4.66667 7.7125 4.66667 7.5C4.66667 7.2875 4.7412 7.10938 4.89028 6.96563C5.03935 6.82188 5.22407 6.75 5.44444 6.75H13.2222C13.4426 6.75 13.6273 6.82188 13.7764 6.96563C13.9255 7.10938 14 7.2875 14 7.5C14 7.7125 13.9255 7.89063 13.7764 8.03438C13.6273 8.17813 13.4426 8.25 13.2222 8.25H5.44444ZM5.44444 3.75C5.22407 3.75 5.03935 3.67813 4.89028 3.53438C4.7412 3.39063 4.66667 3.2125 4.66667 3C4.66667 2.7875 4.7412 2.60938 4.89028 2.46563C5.03935 2.32188 5.22407 2.25 5.44444 2.25H13.2222C13.4426 2.25 13.6273 2.32188 13.7764 2.46563C13.9255 2.60938 14 2.7875 14 3C14 3.2125 13.9255 3.39063 13.7764 3.53438C13.6273 3.67813 13.4426 3.75 13.2222 3.75H5.44444Z" fill="#8E99A4"/>
</svg>
