<svg width="11" height="14" viewBox="0 0 11 14" fill="none" xmlns="http://www.w3.org/2000/svg">
<path d="M0.785714 14C0.563095 14 0.376488 13.9255 0.225893 13.7764C0.0752976 13.6273 0 13.4426 0 13.2222C0 13.0019 0.0752976 12.8171 0.225893 12.6681C0.376488 12.519 0.563095 12.4444 0.785714 12.4444H10.2143C10.4369 12.4444 10.6235 12.519 10.7741 12.6681C10.9247 12.8171 11 13.0019 11 13.2222C11 13.4426 10.9247 13.6273 10.7741 13.7764C10.6235 13.9255 10.4369 14 10.2143 14H0.785714ZM5.5 10.8889C4.17738 10.8889 3.1494 10.4806 2.41607 9.66389C1.68274 8.84722 1.31607 7.76482 1.31607 6.41667V0.991667C1.31607 0.719444 1.41756 0.486111 1.62054 0.291667C1.82351 0.0972222 2.0625 0 2.3375 0C2.6125 0 2.84821 0.0972222 3.04464 0.291667C3.24107 0.486111 3.33929 0.719444 3.33929 0.991667V6.53333C3.33929 7.25926 3.52262 7.84907 3.88929 8.30278C4.25595 8.75648 4.79286 8.98333 5.5 8.98333C6.20714 8.98333 6.74405 8.75648 7.11071 8.30278C7.47738 7.84907 7.66071 7.25926 7.66071 6.53333V0.991667C7.66071 0.719444 7.7622 0.486111 7.96518 0.291667C8.16815 0.0972222 8.40714 0 8.68214 0C8.95714 0 9.19286 0.0972222 9.38929 0.291667C9.58571 0.486111 9.68393 0.719444 9.68393 0.991667V6.41667C9.68393 7.76482 9.31726 8.84722 8.58393 9.66389C7.8506 10.4806 6.82262 10.8889 5.5 10.8889Z" fill="#8E99A4"/>
</svg>
