<svg width="12" height="12" viewBox="0 0 12 12" fill="none" xmlns="http://www.w3.org/2000/svg">
<path d="M1.15385 12C0.830769 12 0.557692 11.8964 0.334615 11.6893C0.111538 11.4821 0 11.2286 0 10.9286C0 10.6286 0.111538 10.375 0.334615 10.1679C0.557692 9.96071 0.830769 9.85714 1.15385 9.85714H3.69231L6.46154 2.14286H3.92308C3.6 2.14286 3.32692 2.03929 3.10385 1.83214C2.88077 1.625 2.76923 1.37143 2.76923 1.07143C2.76923 0.771429 2.88077 0.517857 3.10385 0.310714C3.32692 0.103571 3.6 0 3.92308 0H10.8462C11.1692 0 11.4423 0.103571 11.6654 0.310714C11.8885 0.517857 12 0.771429 12 1.07143C12 1.37143 11.8885 1.625 11.6654 1.83214C11.4423 2.03929 11.1692 2.14286 10.8462 2.14286H8.76923L6 9.85714H8.07692C8.4 9.85714 8.67308 9.96071 8.89615 10.1679C9.11923 10.375 9.23077 10.6286 9.23077 10.9286C9.23077 11.2286 9.11923 11.4821 8.89615 11.6893C8.67308 11.8964 8.4 12 8.07692 12H1.15385Z" fill="#8E99A4"/>
</svg>
