<svg width="9" height="10" viewBox="0 0 9 10" fill="none" xmlns="http://www.w3.org/2000/svg">
<path d="M0.841642 10C0.554712 10 0.327039 9.88393 0.158624 9.65179C-0.00979164 9.41964 -0.0440984 9.17262 0.0557033 8.91071L3.34916 0.535714C3.41154 0.369048 3.51758 0.238095 3.66728 0.142857C3.81698 0.047619 3.97916 0 4.15381 0H4.82747C5.0146 0 5.1799 0.047619 5.32336 0.142857C5.46683 0.238095 5.56975 0.369048 5.63213 0.535714L8.9443 8.92857C9.0441 9.19048 9.00979 9.43452 8.84138 9.66071C8.67296 9.8869 8.44529 10 8.15836 10C7.98371 10 7.82153 9.95238 7.67182 9.85714C7.52212 9.7619 7.41608 9.63095 7.35371 9.46429L6.62391 7.42857H2.39481L1.62758 9.48214C1.5652 9.64881 1.46228 9.77679 1.31882 9.86607C1.17535 9.95536 1.0163 10 0.841642 10ZM2.91877 6H6.06252L4.52807 1.85714H4.45322L2.91877 6Z" fill="#8E99A4"/>
</svg>
