<svg width="14" height="13" viewBox="0 0 14 13" fill="none" xmlns="http://www.w3.org/2000/svg">
<path d="M5.44444 12.1875C5.22407 12.1875 5.03935 12.1096 4.89028 11.9539C4.7412 11.7982 4.66667 11.6052 4.66667 11.375C4.66667 11.1448 4.7412 10.9518 4.89028 10.7961C5.03935 10.6404 5.22407 10.5625 5.44444 10.5625H13.2222C13.4426 10.5625 13.6273 10.6404 13.7764 10.7961C13.9255 10.9518 14 11.1448 14 11.375C14 11.6052 13.9255 11.7982 13.7764 11.9539C13.6273 12.1096 13.4426 12.1875 13.2222 12.1875H5.44444ZM5.44444 7.3125C5.22407 7.3125 5.03935 7.23464 4.89028 7.07891C4.7412 6.92318 4.66667 6.73021 4.66667 6.5C4.66667 6.26979 4.7412 6.07682 4.89028 5.92109C5.03935 5.76536 5.22407 5.6875 5.44444 5.6875H13.2222C13.4426 5.6875 13.6273 5.76536 13.7764 5.92109C13.9255 6.07682 14 6.26979 14 6.5C14 6.73021 13.9255 6.92318 13.7764 7.07891C13.6273 7.23464 13.4426 7.3125 13.2222 7.3125H5.44444ZM5.44444 2.4375C5.22407 2.4375 5.03935 2.35964 4.89028 2.20391C4.7412 2.04818 4.66667 1.85521 4.66667 1.625C4.66667 1.39479 4.7412 1.20182 4.89028 1.04609C5.03935 0.890365 5.22407 0.8125 5.44444 0.8125H13.2222C13.4426 0.8125 13.6273 0.890365 13.7764 1.04609C13.9255 1.20182 14 1.39479 14 1.625C14 1.85521 13.9255 2.04818 13.7764 2.20391C13.6273 2.35964 13.4426 2.4375 13.2222 2.4375H5.44444ZM1.55556 13C1.12778 13 0.761574 12.8409 0.456944 12.5227C0.152315 12.2044 0 11.8219 0 11.375C0 10.9281 0.152315 10.5456 0.456944 10.2273C0.761574 9.90911 1.12778 9.75 1.55556 9.75C1.98333 9.75 2.34954 9.90911 2.65417 10.2273C2.9588 10.5456 3.11111 10.9281 3.11111 11.375C3.11111 11.8219 2.9588 12.2044 2.65417 12.5227C2.34954 12.8409 1.98333 13 1.55556 13ZM1.55556 8.125C1.12778 8.125 0.761574 7.96589 0.456944 7.64766C0.152315 7.32943 0 6.94687 0 6.5C0 6.05312 0.152315 5.67057 0.456944 5.35234C0.761574 5.03411 1.12778 4.875 1.55556 4.875C1.98333 4.875 2.34954 5.03411 2.65417 5.35234C2.9588 5.67057 3.11111 6.05312 3.11111 6.5C3.11111 6.94687 2.9588 7.32943 2.65417 7.64766C2.34954 7.96589 1.98333 8.125 1.55556 8.125ZM1.55556 3.25C1.12778 3.25 0.761574 3.09089 0.456944 2.77266C0.152315 2.45443 0 2.07187 0 1.625C0 1.17812 0.152315 0.795573 0.456944 0.477344C0.761574 0.159115 1.12778 0 1.55556 0C1.98333 0 2.34954 0.159115 2.65417 0.477344C2.9588 0.795573 3.11111 1.17812 3.11111 1.625C3.11111 2.07187 2.9588 2.45443 2.65417 2.77266C2.34954 3.09089 1.98333 3.25 1.55556 3.25Z" fill="#8E99A4"/>
</svg>
