<svg width="6" height="4" viewBox="0 0 6 4" fill="none" xmlns="http://www.w3.org/2000/svg">
<path opacity="0.5" d="M3 4C2.92825 4 2.86099 3.98728 2.79821 3.96183C2.73543 3.93639 2.67713 3.89313 2.62332 3.83206L0.147982 1.0229C0.0493274 0.910941 0 0.768448 0 0.59542C0 0.422392 0.0493274 0.279898 0.147982 0.167939C0.246637 0.0559796 0.372197 0 0.524664 0C0.67713 0 0.802691 0.0559796 0.901345 0.167939L3 2.54962L5.09865 0.167939C5.19731 0.0559796 5.32287 0 5.47534 0C5.6278 0 5.75336 0.0559796 5.85202 0.167939C5.95067 0.279898 6 0.422392 6 0.59542C6 0.768448 5.95067 0.910941 5.85202 1.0229L3.37668 3.83206C3.32287 3.89313 3.26457 3.93639 3.20179 3.96183C3.13901 3.98728 3.07175 4 3 4Z" fill="#8E99A4"/>
</svg>
